ffmpeg started on 2023-12-14 at 14:14:00
Report written to "ffmpeg-20231214-141400.log"
Log level: 48
Command line:
ffmpeg -r 10 -i "_tmp%07d.png" -vframes 10 -vcodec h264 -pix_fmt yuv420p -report -metadata "artist=HazyResearch" -y animations/spiral.H10-0.E1-1.S1-1.lr5.0.ep1000.seed0.mp4
ffmpeg version 4.4 Copyright (c) 2000-2021 the FFmpeg developers
  built with Apple clang version 12.0.0 (clang-1200.0.32.29)
  configuration: --prefix=/usr/local/Cellar/ffmpeg/4.4_1 --enable-shared --enable-pthreads --enable-version3 --enable-avresample --cc=clang --host-cflags= --host-ldflags= --enable-ffplay --enable-gnutls --enable-gpl --enable-libaom --enable-libbluray --enable-libdav1d --enable-libmp3lame --enable-libopus --enable-librav1e --enable-librubberband --enable-libsnappy --enable-libsrt --enable-libtesseract --enable-libtheora --enable-libvidstab --enable-libvorbis --enable-libvpx --enable-libwebp --enable-libx264 --enable-libx265 --enable-libxml2 --enable-libxvid --enable-lzma --enable-libfontconfig --enable-libfreetype --enable-frei0r --enable-libass --enable-libopencore-amrnb --enable-libopencore-amrwb --enable-libopenjpeg --enable-libspeex --enable-libsoxr --enable-libzmq --enable-libzimg --disable-libjack --disable-indev=jack --enable-videotoolbox
  libavutil      56. 70.100 / 56. 70.100
  libavcodec     58.134.100 / 58.134.100
  libavformat    58. 76.100 / 58. 76.100
  libavdevice    58. 13.100 / 58. 13.100
  libavfilter     7.110.100 /  7.110.100
  libavresample   4.  0.  0 /  4.  0.  0
  libswscale      5.  9.100 /  5.  9.100
  libswresample   3.  9.100 /  3.  9.100
  libpostproc    55.  9.100 / 55.  9.100
Splitting the commandline.
Reading option '-r' ... matched as option 'r' (set frame rate (Hz value, fraction or abbreviation)) with argument '10'.
Reading option '-i' ... matched as input url with argument '_tmp%07d.png'.
Reading option '-vframes' ... matched as option 'vframes' (set the number of video frames to output) with argument '10'.
Reading option '-vcodec' ... matched as option 'vcodec' (force video codec ('copy' to copy stream)) with argument 'h264'.
Reading option '-pix_fmt' ... matched as option 'pix_fmt' (set pixel format) with argument 'yuv420p'.
Reading option '-report' ... matched as option 'report' (generate a report) with argument '1'.
Reading option '-metadata' ... matched as option 'metadata' (add metadata) with argument 'artist=HazyResearch'.
Reading option '-y' ... matched as option 'y' (overwrite output files) with argument '1'.
Reading option 'animations/spiral.H10-0.E1-1.S1-1.lr5.0.ep1000.seed0.mp4' ... matched as output url.
Finished splitting the commandline.
Parsing a group of options: global .
Applying option report (generate a report) with argument 1.
Applying option y (overwrite output files) with argument 1.
Successfully parsed a group of options.
Parsing a group of options: input url _tmp%07d.png.
Applying option r (set frame rate (Hz value, fraction or abbreviation)) with argument 10.
Successfully parsed a group of options.
Opening an input file: _tmp%07d.png.
[image2 @ 0x7fdda7809a00] Opening '_tmp0000000.png' for reading
[file @ 0x7fdda8105840] Setting default whitelist 'file,crypto,data'
[AVIOContext @ 0x7fdda8105e40] Statistics: 172848 bytes read, 0 seeks
[image2 @ 0x7fdda7809a00] Opening '_tmp0000001.png' for reading
[file @ 0x7fdda8012880] Setting default whitelist 'file,crypto,data'
[AVIOContext @ 0x7fdda8012a00] Statistics: 176099 bytes read, 0 seeks
[image2 @ 0x7fdda7809a00] Opening '_tmp0000002.png' for reading
[file @ 0x7fdda8012a00] Setting default whitelist 'file,crypto,data'
[AVIOContext @ 0x7fdda8012b80] Statistics: 252226 bytes read, 0 seeks
[image2 @ 0x7fdda7809a00] Opening '_tmp0000003.png' for reading
[file @ 0x7fdda8012b80] Setting default whitelist 'file,crypto,data'
[AVIOContext @ 0x7fdda8012c00] Statistics: 252226 bytes read, 0 seeks
[image2 @ 0x7fdda7809a00] Opening '_tmp0000004.png' for reading
[file @ 0x7fdda8012c80] Setting default whitelist 'file,crypto,data'
[AVIOContext @ 0x7fdda8012d80] Statistics: 252226 bytes read, 0 seeks
[image2 @ 0x7fdda7809a00] Opening '_tmp0000005.png' for reading
[file @ 0x7fdda8012d80] Setting default whitelist 'file,crypto,data'
[AVIOContext @ 0x7fdda8012e00] Statistics: 252226 bytes read, 0 seeks
[image2 @ 0x7fdda7809a00] Opening '_tmp0000006.png' for reading
[file @ 0x7fdda8012e00] Setting default whitelist 'file,crypto,data'
[AVIOContext @ 0x7fdda8012f80] Statistics: 252226 bytes read, 0 seeks
[image2 @ 0x7fdda7809a00] Opening '_tmp0000007.png' for reading
[file @ 0x7fdda8013000] Setting default whitelist 'file,crypto,data'
[AVIOContext @ 0x7fdda8013080] Statistics: 252226 bytes read, 0 seeks
[image2 @ 0x7fdda7809a00] Opening '_tmp0000008.png' for reading
[file @ 0x7fdda8013080] Setting default whitelist 'file,crypto,data'
[AVIOContext @ 0x7fdda8013100] Statistics: 252226 bytes read, 0 seeks
[image2 @ 0x7fdda7809a00] Opening '_tmp0000009.png' for reading
[file @ 0x7fdda8013100] Setting default whitelist 'file,crypto,data'
[AVIOContext @ 0x7fdda8013280] Statistics: 252226 bytes read, 0 seeks
Input #0, image2, from '_tmp%07d.png':
  Duration: 00:00:00.40, start: 0.000000, bitrate: N/A
  Stream #0:0, 10, 1/25: Video: png, rgba(pc), 1080x1080 [SAR 4251:4251 DAR 1:1], 25 fps, 25 tbr, 25 tbn, 25 tbc
Successfully opened the file.
Parsing a group of options: output url animations/spiral.H10-0.E1-1.S1-1.lr5.0.ep1000.seed0.mp4.
Applying option vframes (set the number of video frames to output) with argument 10.
Applying option vcodec (force video codec ('copy' to copy stream)) with argument h264.
Applying option pix_fmt (set pixel format) with argument yuv420p.
Applying option metadata (add metadata) with argument artist=HazyResearch.
Successfully parsed a group of options.
Opening an output file: animations/spiral.H10-0.E1-1.S1-1.lr5.0.ep1000.seed0.mp4.
Matched encoder 'libx264' for codec 'h264'.
[file @ 0x7fdda8014840] Setting default whitelist 'file,crypto,data'
Successfully opened the file.
detected 8 logical cores
Stream mapping:
  Stream #0:0 -> #0:0 (png (native) -> h264 (libx264))
Press [q] to stop, [?] for help
cur_dts is invalid st:0 (0) [init:0 i_done:0 finish:0] (this is harmless if it occurs once at the start per stream)
cur_dts is invalid st:0 (0) [init:0 i_done:0 finish:0] (this is harmless if it occurs once at the start per stream)
cur_dts is invalid st:0 (0) [init:0 i_done:0 finish:0] (this is harmless if it occurs once at the start per stream)
cur_dts is invalid st:0 (0) [init:0 i_done:0 finish:0] (this is harmless if it occurs once at the start per stream)
cur_dts is invalid st:0 (0) [init:0 i_done:0 finish:0] (this is harmless if it occurs once at the start per stream)
cur_dts is invalid st:0 (0) [init:0 i_done:0 finish:0] (this is harmless if it occurs once at the start per stream)
cur_dts is invalid st:0 (0) [init:0 i_done:0 finish:0] (this is harmless if it occurs once at the start per stream)
cur_dts is invalid st:0 (0) [init:0 i_done:0 finish:0] (this is harmless if it occurs once at the start per stream)
cur_dts is invalid st:0 (0) [init:0 i_done:0 finish:0] (this is harmless if it occurs once at the start per stream)
[graph 0 input from stream 0:0 @ 0x7fdda8012880] Setting 'video_size' to value '1080x1080'
[graph 0 input from stream 0:0 @ 0x7fdda8012880] Setting 'pix_fmt' to value '26'
[graph 0 input from stream 0:0 @ 0x7fdda8012880] Setting 'time_base' to value '1/10'
[graph 0 input from stream 0:0 @ 0x7fdda8012880] Setting 'pixel_aspect' to value '4251/4251'
[graph 0 input from stream 0:0 @ 0x7fdda8012880] Setting 'frame_rate' to value '10/1'
[graph 0 input from stream 0:0 @ 0x7fdda8012880] w:1080 h:1080 pixfmt:rgba tb:1/10 fr:10/1 sar:4251/4251
[format @ 0x7fdda8018f40] Setting 'pix_fmts' to value 'yuv420p'
[auto_scaler_0 @ 0x7fddaa604640] Setting 'flags' to value 'bicubic'
[auto_scaler_0 @ 0x7fddaa604640] w:iw h:ih flags:'bicubic' interl:0
[format @ 0x7fdda8018f40] auto-inserting filter 'auto_scaler_0' between the filter 'Parsed_null_0' and the filter 'format'
[AVFilterGraph @ 0x7fdda8107dc0] query_formats: 4 queried, 2 merged, 1 already done, 0 delayed
[auto_scaler_0 @ 0x7fddaa604640] w:1080 h:1080 fmt:rgba sar:4251/4251 -> w:1080 h:1080 fmt:yuv420p sar:1/1 flags:0x4
[libx264 @ 0x7fdda880da00] using mv_range_thread = 40
[libx264 @ 0x7fdda880da00] using SAR=1/1
[libx264 @ 0x7fdda880da00] using cpu capabilities: MMX2 SSE2Fast SSSE3 SSE4.2 AVX FMA3 BMI2 AVX2
[libx264 @ 0x7fdda880da00] profile High, level 3.2, 4:2:0, 8-bit
[libx264 @ 0x7fdda880da00] 264 - core 161 r3049 55d517b - H.264/MPEG-4 AVC codec - Copyleft 2003-2021 - http://www.videolan.org/x264.html - options: cabac=1 ref=3 deblock=1:0:0 analyse=0x3:0x113 me=hex subme=7 psy=1 psy_rd=1.00:0.00 mixed_ref=1 me_range=16 chroma_me=1 trellis=1 8x8dct=1 cqm=0 deadzone=21,11 fast_pskip=1 chroma_qp_offset=-2 threads=12 lookahead_threads=2 sliced_threads=0 nr=0 decimate=1 interlaced=0 bluray_compat=0 constrained_intra=0 bframes=3 b_pyramid=2 b_adapt=1 b_bias=0 direct=1 weightb=1 open_gop=0 weightp=2 keyint=250 keyint_min=10 scenecut=40 intra_refresh=0 rc_lookahead=40 rc=crf mbtree=1 crf=23.0 qcomp=0.60 qpmin=0 qpmax=69 qpstep=4 ip_ratio=1.40 aq=1:1.00
Output #0, mp4, to 'animations/spiral.H10-0.E1-1.S1-1.lr5.0.ep1000.seed0.mp4':
  Metadata:
    artist          : HazyResearch
    encoder         : Lavf58.76.100
  Stream #0:0, 0, 1/10240: Video: h264 (avc1 / 0x31637661), yuv420p(tv, progressive), 1080x1080 [SAR 1:1 DAR 1:1], q=2-31, 10 fps, 10240 tbn
    Metadata:
      encoder         : Lavc58.134.100 libx264
    Side data:
      cpb: bitrate max/min/avg: 0/0/0 buffer size: 0 vbv_delay: N/A
Clipping frame in rate conversion by 0.000008
frame=    1 fps=0.0 q=0.0 size=       0kB time=00:00:00.00 bitrate=N/A speed=   0x    cur_dts is invalid st:0 (0) [init:1 i_done:0 finish:0] (this is harmless if it occurs once at the start per stream)
cur_dts is invalid st:0 (0) [init:1 i_done:0 finish:0] (this is harmless if it occurs once at the start per stream)
cur_dts is invalid st:0 (0) [init:1 i_done:0 finish:0] (this is harmless if it occurs once at the start per stream)
cur_dts is invalid st:0 (0) [init:1 i_done:0 finish:0] (this is harmless if it occurs once at the start per stream)
cur_dts is invalid st:0 (0) [init:1 i_done:0 finish:0] (this is harmless if it occurs once at the start per stream)
cur_dts is invalid st:0 (0) [init:1 i_done:0 finish:0] (this is harmless if it occurs once at the start per stream)
cur_dts is invalid st:0 (0) [init:1 i_done:0 finish:0] (this is harmless if it occurs once at the start per stream)
cur_dts is invalid st:0 (0) [init:1 i_done:0 finish:0] (this is harmless if it occurs once at the start per stream)
cur_dts is invalid st:0 (0) [init:1 i_done:0 finish:0] (this is harmless if it occurs once at the start per stream)
No more output streams to write to, finishing.
[libx264 @ 0x7fdda880da00] frame=   0 QP=17.29 NAL=3 Slice:I Poc:0   I:4624 P:0    SKIP:0    size=41786 bytes
[libx264 @ 0x7fdda880da00] frame=   1 QP=20.22 NAL=2 Slice:P Poc:8   I:766  P:319  SKIP:3539 size=51368 bytes
[libx264 @ 0x7fdda880da00] frame=   2 QP=15.63 NAL=2 Slice:B Poc:4   I:21   P:329  SKIP:4274 size=364 bytes
[libx264 @ 0x7fdda880da00] frame=   3 QP=18.81 NAL=0 Slice:B Poc:2   I:155  P:802  SKIP:3667 size=13927 bytes
[libx264 @ 0x7fdda880da00] frame=   4 QP=10.00 NAL=0 Slice:B Poc:6   I:6    P:91   SKIP:4527 size=165 bytes
[libx264 @ 0x7fdda880da00] frame=   5 QP=20.36 NAL=2 Slice:P Poc:16  I:8    P:12   SKIP:4604 size=108 bytes
[libx264 @ 0x7fdda880da00] frame=   6 QP=9.00 NAL=2 Slice:B Poc:12  I:10   P:106  SKIP:4508 size=191 bytes
[libx264 @ 0x7fdda880da00] frame=   7 QP=10.00 NAL=0 Slice:B Poc:10  I:0    P:87   SKIP:4537 size=123 bytes
[libx264 @ 0x7fdda880da00] frame=   8 QP=10.00 NAL=0 Slice:B Poc:14  I:0    P:81   SKIP:4543 size=118 bytes
[libx264 @ 0x7fdda880da00] frame=   9 QP=10.00 NAL=2 Slice:P Poc:18  I:0    P:2    SKIP:4622 size=57 bytes
frame=   10 fps=0.0 q=-1.0 Lsize=     107kB time=00:00:00.70 bitrate=1256.2kbits/s speed=3.06x    
video:106kB audio:0kB subtitle:0kB other streams:0kB global headers:0kB muxing overhead: 0.949521%
Input file #0 (_tmp%07d.png):
  Input stream #0:0 (video): 10 packets read (2366755 bytes); 10 frames decoded; 
  Total: 10 packets (2366755 bytes) demuxed
Output file #0 (animations/spiral.H10-0.E1-1.S1-1.lr5.0.ep1000.seed0.mp4):
  Output stream #0:0 (video): 10 frames encoded; 10 packets muxed (108897 bytes); 
  Total: 10 packets (108897 bytes) muxed
10 frames successfully decoded, 0 decoding errors
[AVIOContext @ 0x7fdda8014a00] Statistics: 2 seeks, 4 writeouts
[libx264 @ 0x7fdda880da00] frame I:1     Avg QP:17.29  size: 41786
[libx264 @ 0x7fdda880da00] frame P:3     Avg QP:16.86  size: 17178
[libx264 @ 0x7fdda880da00] frame B:6     Avg QP:12.24  size:  2481
[libx264 @ 0x7fdda880da00] consecutive B-frames: 20.0%  0.0%  0.0% 80.0%
[libx264 @ 0x7fdda880da00] mb I  I16..4: 33.5% 45.5% 21.0%
[libx264 @ 0x7fdda880da00] mb P  I16..4:  0.1%  0.8%  4.6%  P16..4:  1.5%  0.5%  0.4%  0.0%  0.0%    skip:92.0%
[libx264 @ 0x7fdda880da00] mb B  I16..4:  0.1%  0.2%  0.4%  B16..8:  4.2%  0.7%  0.4%  direct: 0.0%  skip:93.9%  L0:58.2% L1:40.8% BI: 1.0%
[libx264 @ 0x7fdda880da00] 8x8 transform intra:40.6% inter:25.6%
[libx264 @ 0x7fdda880da00] coded y,uvDC,uvAC intra: 24.4% 14.0% 13.6% inter: 0.6% 0.6% 0.5%
[libx264 @ 0x7fdda880da00] i16 v,h,dc,p: 92%  2%  6%  0%
[libx264 @ 0x7fdda880da00] i8 v,h,dc,ddl,ddr,vr,hd,vl,hu: 45%  8% 45%  1%  0%  0%  0%  0%  0%
[libx264 @ 0x7fdda880da00] i4 v,h,dc,ddl,ddr,vr,hd,vl,hu: 30% 19% 19%  8%  3%  3% 11%  3%  4%
[libx264 @ 0x7fdda880da00] i8c dc,h,v,p: 92%  4%  3%  1%
[libx264 @ 0x7fdda880da00] Weighted P-Frames: Y:0.0% UV:0.0%
[libx264 @ 0x7fdda880da00] ref P L0: 97.0%  0.3%  2.4%  0.3%
[libx264 @ 0x7fdda880da00] ref B L0: 87.3% 10.3%  2.4%
[libx264 @ 0x7fdda880da00] ref B L1: 95.7%  4.3%
[libx264 @ 0x7fdda880da00] kb/s:865.66
